<svg width="66" height="24" viewBox="0 0 66 24" fill="none" xmlns="http://www.w3.org/2000/svg">
<path d="M2.162 16.9644V7.16442H4.43V15.1164H9.344V16.9644H2.162ZM10.8212 16.9644V7.16442H13.0892V16.9644H10.8212ZM17.655 16.9644V9.01242H14.519V7.16442H23.059V9.01242H19.923V16.9644H17.655ZM29.1125 17.1324C28.3379 17.1324 27.6192 17.0064 26.9565 16.7544C26.3032 16.5024 25.7339 16.1477 25.2485 15.6904C24.7725 15.2331 24.3992 14.6964 24.1285 14.0804C23.8672 13.4644 23.7365 12.7924 23.7365 12.0644C23.7365 11.3364 23.8672 10.6644 24.1285 10.0484C24.3992 9.43242 24.7772 8.89575 25.2625 8.43842C25.7479 7.98108 26.3172 7.62642 26.9705 7.37442C27.6239 7.12242 28.3332 6.99642 29.0985 6.99642C29.8732 6.99642 30.5825 7.12242 31.2265 7.37442C31.8799 7.62642 32.4445 7.98108 32.9205 8.43842C33.4059 8.89575 33.7839 9.43242 34.0545 10.0484C34.3252 10.6551 34.4605 11.3271 34.4605 12.0644C34.4605 12.7924 34.3252 13.4691 34.0545 14.0944C33.7839 14.7104 33.4059 15.2471 32.9205 15.7044C32.4445 16.1524 31.8799 16.5024 31.2265 16.7544C30.5825 17.0064 29.8779 17.1324 29.1125 17.1324ZM29.0985 15.2004C29.5372 15.2004 29.9385 15.1257 30.3025 14.9764C30.6759 14.8271 31.0025 14.6124 31.2825 14.3324C31.5625 14.0524 31.7772 13.7211 31.9265 13.3384C32.0852 12.9557 32.1645 12.5311 32.1645 12.0644C32.1645 11.5977 32.0852 11.1731 31.9265 10.7904C31.7772 10.4077 31.5625 10.0764 31.2825 9.79642C31.0119 9.51642 30.6899 9.30175 30.3165 9.15242C29.9432 9.00308 29.5372 8.92842 29.0985 8.92842C28.6599 8.92842 28.2539 9.00308 27.8805 9.15242C27.5165 9.30175 27.1945 9.51642 26.9145 9.79642C26.6345 10.0764 26.4152 10.4077 26.2565 10.7904C26.1072 11.1731 26.0325 11.5977 26.0325 12.0644C26.0325 12.5217 26.1072 12.9464 26.2565 13.3384C26.4152 13.7211 26.6299 14.0524 26.9005 14.3324C27.1805 14.6124 27.5072 14.8271 27.8805 14.9764C28.2539 15.1257 28.6599 15.2004 29.0985 15.2004ZM36.375 16.9644V7.16442H40.617C41.4944 7.16442 42.2504 7.30908 42.885 7.59842C43.5197 7.87842 44.0097 8.28442 44.355 8.81642C44.7004 9.34842 44.873 9.98308 44.873 10.7204C44.873 11.4484 44.7004 12.0784 44.355 12.6104C44.0097 13.1424 43.5197 13.5531 42.885 13.8424C42.2504 14.1224 41.4944 14.2624 40.617 14.2624H37.635L38.643 13.2404V16.9644H36.375ZM38.643 13.4924L37.635 12.4144H40.491C41.191 12.4144 41.7137 12.2651 42.059 11.9664C42.4044 11.6677 42.577 11.2524 42.577 10.7204C42.577 10.1791 42.4044 9.75908 42.059 9.46042C41.7137 9.16175 41.191 9.01242 40.491 9.01242H37.635L38.643 7.93442V13.4924ZM44.922 16.9644L49.29 7.16442H51.53L55.912 16.9644H53.532L49.948 8.31242H50.844L47.246 16.9644H44.922ZM47.106 14.8644L47.708 13.1424H52.748L53.364 14.8644H47.106ZM58.9732 16.9644V12.9604L59.4912 14.3324L55.1792 7.16442H57.5872L60.8912 12.6664H59.5052L62.8232 7.16442H65.0492L60.7372 14.3324L61.2412 12.9604V16.9644H58.9732Z" fill="#EB5757"/>
<path d="M1 22.9644H65" stroke="#EB5757" stroke-width="1.5" stroke-linecap="round"/>
</svg>
