<svg width="15" height="19" viewBox="0 0 15 19" fill="none" xmlns="http://www.w3.org/2000/svg">
<path d="M13.3193 7.0588L8.02521 1.76468M13.3193 7.0588H10.8487C9.86041 7.0588 9.36625 7.0588 8.98875 6.86645C8.6567 6.69727 8.38674 6.4273 8.21755 6.09525C8.02521 5.71776 8.02521 5.22359 8.02521 4.23527V1.76468M13.3193 7.0588V8.8235M8.02521 1.76468H3.78991C2.80159 1.76468 2.30742 1.76468 1.92993 1.95702C1.59788 2.12621 1.32791 2.39617 1.15873 2.72823C0.966385 3.10572 0.966385 3.59988 0.966385 4.58821V14.8235C0.966385 15.8118 0.966385 16.306 1.15873 16.6835C1.32791 17.0155 1.59788 17.2855 1.92993 17.4547C2.30742 17.647 2.80159 17.647 3.78991 17.647H8.02521M11.5546 12.3529V15M11.5546 17.647H11.5634M4.4958 14.1176H8.02521M4.4958 10.5882H8.02521M4.4958 7.0588H5.37815" stroke="#2F353A" stroke-width="2" stroke-linecap="round" stroke-linejoin="round"/>
</svg>
