<svg width="36" height="32" viewBox="0 0 36 32" fill="none" xmlns="http://www.w3.org/2000/svg">
    <rect x="1.00195" y="5" width="26" height="26" rx="13" fill="#212121"/>
    <rect x="1.00195" y="5" width="26" height="26" rx="13" stroke="#212121" stroke-width="2"/>
    <rect width="16" height="16" transform="translate(6.00195 10)" fill="#212121"/>
    <path fill-rule="evenodd" clip-rule="evenodd" d="M16.3559 17.4242C16.3367 17.4364 16.3174 17.4485 16.298 17.4604C16.3194 17.4684 16.3407 17.4764 16.362 17.4846C16.595 17.5741 16.8202 17.6789 17.0362 17.7977C16.8005 17.668 16.5539 17.5551 16.298 17.4604C16.3174 17.4485 16.3367 17.4364 16.3559 17.4242ZM12.3861 17.4846C12.3861 17.4846 12.3861 17.4846 12.3861 17.4846C12.4074 17.4764 12.4287 17.4684 12.4501 17.4604C12.4307 17.4485 12.4114 17.4364 12.3922 17.4242C12.2859 17.3561 12.1834 17.2828 12.0852 17.2045C12.2011 17.2969 12.323 17.3824 12.4501 17.4604C12.4287 17.4684 12.4074 17.4764 12.3861 17.4846ZM16.2696 17.4142L16.1744 17.4726L16.2791 17.5113C18.3064 18.261 19.7461 20.1717 19.7461 22.409V23.2908C19.7461 24.2335 18.9619 25.0001 17.9916 25.0001H10.7565C9.78618 25.0001 9.00195 24.2335 9.00195 23.2908V22.409C9.00195 20.1717 10.4417 18.261 12.469 17.5113L12.5737 17.4726L12.4785 17.4142C11.4761 16.7992 10.8107 15.7115 10.8107 14.4729C10.8107 12.5562 12.4048 11.0001 14.374 11.0001C16.3433 11.0001 17.9374 12.5562 17.9374 14.4729C17.9374 15.7115 17.272 16.7992 16.2696 17.4142ZM14.374 17.1725C15.9012 17.1725 17.1415 15.9652 17.1415 14.4729C17.1415 12.9807 15.9012 11.7733 14.374 11.7733C12.8469 11.7733 11.6066 12.9807 11.6066 14.4729C11.6066 15.9652 12.8469 17.1725 14.374 17.1725ZM14.374 17.9458C11.848 17.9458 9.79782 19.9427 9.79782 22.409V23.2908C9.79782 23.809 10.2283 24.2268 10.7565 24.2268H17.9916C18.5198 24.2268 18.9503 23.809 18.9503 23.2908V22.409C18.9503 19.9427 16.9001 17.9458 14.374 17.9458Z" fill="white"/>
    <path d="M16.298 17.4604L16.1594 17.2346L15.6944 17.5198L16.206 17.709L16.298 17.4604ZM16.3559 17.4242L16.4987 17.6474L16.2131 17.2009L16.3559 17.4242ZM16.362 17.4846L16.457 17.2372L16.457 17.2372L16.362 17.4846ZM12.3861 17.4846V17.7496H12.4353L12.4811 17.732L12.3861 17.4846ZM12.3861 17.4846L12.2911 17.2372L12.3861 17.7496V17.4846ZM12.4501 17.4604L12.5421 17.709L13.0537 17.5198L12.5887 17.2346L12.4501 17.4604ZM12.3922 17.4242L12.2494 17.6474L12.2494 17.6474L12.3922 17.4242ZM16.1744 17.4726L16.0358 17.2467L15.5708 17.532L16.0825 17.7212L16.1744 17.4726ZM16.2696 17.4142L16.131 17.1883L16.131 17.1883L16.2696 17.4142ZM16.2791 17.5113L16.371 17.2628L16.371 17.2628L16.2791 17.5113ZM12.469 17.5113L12.377 17.2628L12.377 17.2628L12.469 17.5113ZM12.5737 17.4726L12.6656 17.7212L13.1773 17.532L12.7123 17.2467L12.5737 17.4726ZM12.4785 17.4142L12.6171 17.1883L12.6171 17.1883L12.4785 17.4142ZM16.4365 17.6863C16.4574 17.6735 16.4781 17.6606 16.4987 17.6474L16.2131 17.2009C16.1953 17.2123 16.1774 17.2235 16.1594 17.2346L16.4365 17.6863ZM16.457 17.2372C16.4347 17.2286 16.4123 17.2202 16.3899 17.2119L16.206 17.709C16.2264 17.7165 16.2467 17.7242 16.2669 17.732L16.457 17.2372ZM17.1639 17.5655C16.9374 17.4409 16.7013 17.331 16.457 17.2372L16.2669 17.732C16.4887 17.8171 16.703 17.9168 16.9085 18.0299L17.1639 17.5655ZM17.1639 17.5655C16.9168 17.4295 16.6582 17.3111 16.3899 17.2119L16.206 17.709C16.4496 17.799 16.6843 17.9065 16.9085 18.0299L17.1639 17.5655ZM16.4365 17.6863C16.4574 17.6735 16.4781 17.6606 16.4987 17.6474L16.2131 17.2009C16.1953 17.2123 16.1774 17.2235 16.1594 17.2346L16.4365 17.6863ZM12.3861 17.2196C12.3685 17.2196 12.3531 17.2213 12.3405 17.2235C12.328 17.2257 12.3176 17.2285 12.31 17.2307C12.3025 17.233 12.2965 17.2352 12.2931 17.2364C12.2913 17.2371 12.2899 17.2377 12.2891 17.238C12.2886 17.2382 12.2883 17.2383 12.2881 17.2384C12.2879 17.2384 12.2879 17.2385 12.2878 17.2385C12.2878 17.2385 12.2878 17.2385 12.2877 17.2385C12.2877 17.2385 12.2877 17.2385 12.2877 17.2385C12.2877 17.2385 12.2877 17.2385 12.2877 17.2385C12.2877 17.2385 12.2877 17.2385 12.2877 17.2385C12.2873 17.2387 12.2899 17.2376 12.2931 17.2364C12.2965 17.2352 12.3024 17.233 12.31 17.2307C12.3176 17.2285 12.328 17.2257 12.3405 17.2235C12.3531 17.2213 12.3685 17.2196 12.3861 17.2196V17.7496C12.4038 17.7496 12.4192 17.7478 12.4318 17.7456C12.4443 17.7434 12.4547 17.7407 12.4623 17.7384C12.4698 17.7361 12.4758 17.734 12.4792 17.7327C12.481 17.732 12.4824 17.7315 12.4832 17.7311C12.4837 17.731 12.484 17.7308 12.4842 17.7307C12.4843 17.7307 12.4844 17.7307 12.4845 17.7306C12.4845 17.7306 12.4845 17.7306 12.4845 17.7306C12.4845 17.7306 12.4845 17.7306 12.4846 17.7306C12.4846 17.7306 12.4846 17.7306 12.4846 17.7306C12.4846 17.7306 12.4846 17.7306 12.4846 17.7306C12.485 17.7304 12.4823 17.7315 12.4792 17.7327C12.4758 17.734 12.4698 17.7361 12.4623 17.7384C12.4547 17.7407 12.4443 17.7434 12.4318 17.7456C12.4192 17.7478 12.4038 17.7496 12.3861 17.7496V17.2196ZM12.3582 17.2119C12.3358 17.2202 12.3134 17.2286 12.2911 17.2372L12.4811 17.732C12.5014 17.7242 12.5217 17.7165 12.5421 17.709L12.3582 17.2119ZM12.2494 17.6474C12.27 17.6606 12.2907 17.6735 12.3116 17.6863L12.5887 17.2346C12.5707 17.2235 12.5528 17.2123 12.535 17.2009L12.2494 17.6474ZM11.92 17.4117C12.0254 17.4957 12.1353 17.5744 12.2494 17.6474L12.535 17.2009C12.4364 17.1379 12.3414 17.0699 12.2505 16.9973L11.92 17.4117ZM11.92 17.4117C12.0444 17.5108 12.1751 17.6026 12.3116 17.6863L12.5887 17.2346C12.4708 17.1622 12.3578 17.0829 12.2505 16.9973L11.92 17.4117ZM12.3582 17.2119C12.3358 17.2202 12.3134 17.2286 12.2911 17.2372L12.4811 17.732C12.5014 17.7242 12.5217 17.7165 12.542 17.709L12.3582 17.2119ZM16.3129 17.6985L16.4082 17.6401L16.131 17.1883L16.0358 17.2467L16.3129 17.6985ZM16.371 17.2628L16.2663 17.2241L16.0825 17.7212L16.1872 17.7599L16.371 17.2628ZM20.0111 22.409C20.0111 20.0539 18.4957 18.0485 16.371 17.2628L16.1872 17.7599C18.1171 18.4735 19.4811 20.2895 19.4811 22.409H20.0111ZM20.0111 23.2908V22.409H19.4811V23.2908H20.0111ZM17.9916 25.2651C19.102 25.2651 20.0111 24.3861 20.0111 23.2908H19.4811C19.4811 24.0809 18.8219 24.7351 17.9916 24.7351V25.2651ZM10.7565 25.2651H17.9916V24.7351H10.7565V25.2651ZM8.73695 23.2908C8.73695 24.3861 9.64613 25.2651 10.7565 25.2651V24.7351C9.92623 24.7351 9.26695 24.0809 9.26695 23.2908H8.73695ZM8.73695 22.409V23.2908H9.26695V22.409H8.73695ZM12.377 17.2628C10.2523 18.0485 8.73695 20.0539 8.73695 22.409H9.26695C9.26695 20.2895 10.631 18.4735 12.5609 17.7599L12.377 17.2628ZM12.4818 17.2241L12.377 17.2628L12.5609 17.7599L12.6656 17.7212L12.4818 17.2241ZM12.3399 17.6401L12.4351 17.6985L12.7123 17.2467L12.6171 17.1883L12.3399 17.6401ZM10.5457 14.4729C10.5457 15.8095 11.264 16.98 12.3399 17.6401L12.6171 17.1883C11.6881 16.6184 11.0757 15.6135 11.0757 14.4729H10.5457ZM14.374 10.7351C12.2648 10.7351 10.5457 12.4036 10.5457 14.4729H11.0757C11.0757 12.7088 12.5448 11.2651 14.374 11.2651V10.7351ZM18.2024 14.4729C18.2024 12.4036 16.4833 10.7351 14.374 10.7351V11.2651C16.2033 11.2651 17.6724 12.7088 17.6724 14.4729H18.2024ZM16.4082 17.6401C17.484 16.98 18.2024 15.8095 18.2024 14.4729H17.6724C17.6724 15.6135 17.06 16.6184 16.131 17.1883L16.4082 17.6401ZM16.8765 14.4729C16.8765 15.8125 15.7612 16.9075 14.374 16.9075V17.4375C16.0411 17.4375 17.4065 16.1178 17.4065 14.4729H16.8765ZM14.374 12.0383C15.7612 12.0383 16.8765 13.1334 16.8765 14.4729H17.4065C17.4065 12.828 16.0411 11.5083 14.374 11.5083V12.0383ZM11.8716 14.4729C11.8716 13.1334 12.9869 12.0383 14.374 12.0383V11.5083C12.707 11.5083 11.3416 12.828 11.3416 14.4729H11.8716ZM14.374 16.9075C12.9869 16.9075 11.8716 15.8125 11.8716 14.4729H11.3416C11.3416 16.1178 12.707 17.4375 14.374 17.4375V16.9075ZM10.0628 22.409C10.0628 20.0954 11.9879 18.2108 14.374 18.2108V17.6808C11.708 17.6808 9.53282 19.7901 9.53282 22.409H10.0628ZM10.0628 23.2908V22.409H9.53282V23.2908H10.0628ZM10.7565 23.9618C10.3682 23.9618 10.0628 23.6563 10.0628 23.2908H9.53282C9.53282 23.9618 10.0884 24.4918 10.7565 24.4918V23.9618ZM17.9916 23.9618H10.7565V24.4918H17.9916V23.9618ZM18.6853 23.2908C18.6853 23.6563 18.3799 23.9618 17.9916 23.9618V24.4918C18.6596 24.4918 19.2153 23.9618 19.2153 23.2908H18.6853ZM18.6853 22.409V23.2908H19.2153V22.409H18.6853ZM14.374 18.2108C16.7602 18.2108 18.6853 20.0954 18.6853 22.409H19.2153C19.2153 19.7901 17.0401 17.6808 14.374 17.6808V18.2108Z" fill="white"/>
    <circle cx="27.8691" cy="8" r="7" fill="#288A5F"/>
    <path fill-rule="evenodd" clip-rule="evenodd" d="M25.6302 7.94717C25.4127 7.69163 25.0235 7.65583 24.7611 7.86714C24.4983 8.07798 24.4614 8.45567 24.6787 8.71051L26.1602 10.4494C26.2735 10.5826 26.4406 10.6617 26.6183 10.6666C26.6243 10.6668 26.6301 10.6668 26.6359 10.6668C26.8073 10.6668 26.9715 10.5976 27.0885 10.4752L31.0391 6.33999C31.271 6.09732 31.2561 5.71823 31.0063 5.49335C30.756 5.26823 30.3654 5.28274 30.1339 5.52517L26.6624 9.15887L25.6302 7.94717Z" fill="white"/>
</svg>
