<svg width="36" height="32" viewBox="0 0 36 32" fill="none" xmlns="http://www.w3.org/2000/svg">
    <rect x="0.998047" y="5" width="26" height="26" rx="13" fill="#575B5F"/>
    <rect x="0.998047" y="5" width="26" height="26" rx="13" stroke="#575B5F" stroke-width="2"/>
    <rect width="16" height="16" transform="translate(5.99805 10)" fill="#575B5F"/>
    <path fill-rule="evenodd" clip-rule="evenodd" d="M16.352 17.4242C16.3328 17.4364 16.3135 17.4485 16.294 17.4604C16.3154 17.4684 16.3368 17.4764 16.358 17.4846C16.5911 17.5741 16.8163 17.6789 17.0323 17.7977C16.7966 17.668 16.55 17.5551 16.294 17.4604C16.3135 17.4485 16.3328 17.4364 16.352 17.4242ZM12.3822 17.4846C12.3822 17.4846 12.3822 17.4846 12.3822 17.4846C12.4035 17.4764 12.4248 17.4684 12.4462 17.4604C12.4268 17.4485 12.4075 17.4364 12.3883 17.4242C12.282 17.3561 12.1795 17.2828 12.0813 17.2045C12.1972 17.2969 12.319 17.3824 12.4462 17.4604C12.4248 17.4684 12.4035 17.4764 12.3822 17.4846ZM16.2657 17.4142L16.1705 17.4726L16.2752 17.5113C18.3025 18.261 19.7422 20.1717 19.7422 22.409V23.2908C19.7422 24.2335 18.958 25.0001 17.9877 25.0001H10.7526C9.78227 25.0001 8.99805 24.2335 8.99805 23.2908V22.409C8.99805 20.1717 10.4378 18.261 12.4651 17.5113L12.5698 17.4726L12.4746 17.4142C11.4722 16.7992 10.8068 15.7115 10.8068 14.4729C10.8068 12.5562 12.4009 11.0001 14.3701 11.0001C16.3394 11.0001 17.9334 12.5562 17.9334 14.4729C17.9334 15.7115 17.2681 16.7992 16.2657 17.4142ZM14.3701 17.1725C15.8973 17.1725 17.1376 15.9652 17.1376 14.4729C17.1376 12.9807 15.8973 11.7733 14.3701 11.7733C12.843 11.7733 11.6027 12.9807 11.6027 14.4729C11.6027 15.9652 12.843 17.1725 14.3701 17.1725ZM14.3701 17.9458C11.8441 17.9458 9.79391 19.9427 9.79391 22.409V23.2908C9.79391 23.809 10.2244 24.2268 10.7526 24.2268H17.9877C18.5159 24.2268 18.9464 23.809 18.9464 23.2908V22.409C18.9464 19.9427 16.8962 17.9458 14.3701 17.9458Z" fill="white"/>
    <path d="M16.294 17.4604L16.1555 17.2346L15.6905 17.5198L16.2021 17.709L16.294 17.4604ZM16.352 17.4242L16.4947 17.6474L16.2092 17.2009L16.352 17.4242ZM16.358 17.4846L16.4531 17.2372L16.453 17.2372L16.358 17.4846ZM12.3822 17.4846V17.7496H12.4314L12.4772 17.732L12.3822 17.4846ZM12.3822 17.4846L12.2872 17.2372L12.3822 17.7496V17.4846ZM12.4462 17.4604L12.5381 17.709L13.0498 17.5198L12.5848 17.2346L12.4462 17.4604ZM12.3883 17.4242L12.2455 17.6474L12.2455 17.6474L12.3883 17.4242ZM16.1705 17.4726L16.0319 17.2467L15.5669 17.532L16.0786 17.7212L16.1705 17.4726ZM16.2657 17.4142L16.1271 17.1883L16.1271 17.1883L16.2657 17.4142ZM16.2752 17.5113L16.3671 17.2628L16.3671 17.2628L16.2752 17.5113ZM12.4651 17.5113L12.3731 17.2628L12.3731 17.2628L12.4651 17.5113ZM12.5698 17.4726L12.6617 17.7212L13.1733 17.532L12.7084 17.2467L12.5698 17.4726ZM12.4746 17.4142L12.6132 17.1883L12.6132 17.1883L12.4746 17.4142ZM16.4326 17.6863C16.4535 17.6735 16.4742 17.6606 16.4947 17.6474L16.2092 17.2009C16.1914 17.2123 16.1735 17.2235 16.1555 17.2346L16.4326 17.6863ZM16.453 17.2372C16.4308 17.2286 16.4084 17.2202 16.386 17.2119L16.2021 17.709C16.2225 17.7165 16.2428 17.7242 16.263 17.732L16.453 17.2372ZM17.16 17.5655C16.9335 17.4409 16.6974 17.331 16.4531 17.2372L16.263 17.732C16.4848 17.8171 16.6991 17.9168 16.9046 18.0299L17.16 17.5655ZM17.16 17.5655C16.9129 17.4295 16.6543 17.3111 16.386 17.2119L16.2021 17.709C16.4457 17.799 16.6803 17.9065 16.9046 18.0299L17.16 17.5655ZM16.4326 17.6863C16.4535 17.6735 16.4742 17.6606 16.4947 17.6474L16.2092 17.2009C16.1914 17.2123 16.1735 17.2235 16.1555 17.2346L16.4326 17.6863ZM12.3822 17.2196C12.3646 17.2196 12.3491 17.2213 12.3366 17.2235C12.324 17.2257 12.3137 17.2285 12.3061 17.2307C12.2985 17.233 12.2926 17.2352 12.2892 17.2364C12.2874 17.2371 12.286 17.2377 12.2851 17.238C12.2847 17.2382 12.2844 17.2383 12.2841 17.2384C12.284 17.2384 12.284 17.2385 12.2839 17.2385C12.2839 17.2385 12.2838 17.2385 12.2838 17.2385C12.2838 17.2385 12.2838 17.2385 12.2838 17.2385C12.2838 17.2385 12.2838 17.2385 12.2838 17.2385C12.2838 17.2385 12.2838 17.2385 12.2838 17.2385C12.2834 17.2387 12.286 17.2376 12.2892 17.2364C12.2926 17.2352 12.2985 17.233 12.3061 17.2307C12.3137 17.2285 12.324 17.2257 12.3366 17.2235C12.3491 17.2213 12.3646 17.2196 12.3822 17.2196V17.7496C12.3999 17.7496 12.4153 17.7478 12.4279 17.7456C12.4404 17.7434 12.4508 17.7407 12.4584 17.7384C12.4659 17.7361 12.4719 17.734 12.4753 17.7327C12.4771 17.732 12.4785 17.7315 12.4793 17.7311C12.4798 17.731 12.4801 17.7308 12.4803 17.7307C12.4804 17.7307 12.4805 17.7307 12.4806 17.7306C12.4806 17.7306 12.4806 17.7306 12.4806 17.7306C12.4806 17.7306 12.4806 17.7306 12.4806 17.7306C12.4806 17.7306 12.4806 17.7306 12.4807 17.7306C12.4807 17.7306 12.4807 17.7306 12.4807 17.7306C12.4811 17.7304 12.4784 17.7315 12.4753 17.7327C12.4719 17.734 12.4659 17.7361 12.4584 17.7384C12.4508 17.7407 12.4404 17.7434 12.4279 17.7456C12.4153 17.7478 12.3999 17.7496 12.3822 17.7496V17.2196ZM12.3543 17.2119C12.3319 17.2202 12.3095 17.2286 12.2872 17.2372L12.4772 17.732C12.4975 17.7242 12.5178 17.7165 12.5381 17.709L12.3543 17.2119ZM12.2455 17.6474C12.2661 17.6606 12.2868 17.6735 12.3077 17.6863L12.5848 17.2346C12.5668 17.2235 12.5489 17.2123 12.5311 17.2009L12.2455 17.6474ZM11.9161 17.4117C12.0215 17.4957 12.1314 17.5744 12.2455 17.6474L12.5311 17.2009C12.4325 17.1379 12.3375 17.0699 12.2466 16.9973L11.9161 17.4117ZM11.9161 17.4117C12.0404 17.5108 12.1712 17.6026 12.3077 17.6863L12.5848 17.2346C12.4669 17.1622 12.3539 17.0829 12.2466 16.9973L11.9161 17.4117ZM12.3543 17.2119C12.3319 17.2202 12.3095 17.2286 12.2872 17.2372L12.4772 17.732C12.4975 17.7242 12.5178 17.7165 12.5381 17.709L12.3543 17.2119ZM16.309 17.6985L16.4042 17.6401L16.1271 17.1883L16.0319 17.2467L16.309 17.6985ZM16.3671 17.2628L16.2624 17.2241L16.0786 17.7212L16.1833 17.7599L16.3671 17.2628ZM20.0072 22.409C20.0072 20.0539 18.4918 18.0485 16.3671 17.2628L16.1833 17.7599C18.1132 18.4735 19.4772 20.2895 19.4772 22.409H20.0072ZM20.0072 23.2908V22.409H19.4772V23.2908H20.0072ZM17.9877 25.2651C19.0981 25.2651 20.0072 24.3861 20.0072 23.2908H19.4772C19.4772 24.0809 18.818 24.7351 17.9877 24.7351V25.2651ZM10.7526 25.2651H17.9877V24.7351H10.7526V25.2651ZM8.73305 23.2908C8.73305 24.3861 9.64222 25.2651 10.7526 25.2651V24.7351C9.92232 24.7351 9.26305 24.0809 9.26305 23.2908H8.73305ZM8.73305 22.409V23.2908H9.26305V22.409H8.73305ZM12.3731 17.2628C10.2484 18.0485 8.73305 20.0539 8.73305 22.409H9.26305C9.26305 20.2895 10.6271 18.4735 12.557 17.7599L12.3731 17.2628ZM12.4779 17.2241L12.3731 17.2628L12.557 17.7599L12.6617 17.7212L12.4779 17.2241ZM12.336 17.6401L12.4312 17.6985L12.7084 17.2467L12.6132 17.1883L12.336 17.6401ZM10.5418 14.4729C10.5418 15.8095 11.2601 16.98 12.336 17.6401L12.6132 17.1883C11.6842 16.6184 11.0718 15.6135 11.0718 14.4729H10.5418ZM14.3701 10.7351C12.2609 10.7351 10.5418 12.4036 10.5418 14.4729H11.0718C11.0718 12.7088 12.5409 11.2651 14.3701 11.2651V10.7351ZM18.1984 14.4729C18.1984 12.4036 16.4794 10.7351 14.3701 10.7351V11.2651C16.1994 11.2651 17.6684 12.7088 17.6684 14.4729H18.1984ZM16.4042 17.6401C17.4801 16.98 18.1984 15.8095 18.1984 14.4729H17.6684C17.6684 15.6135 17.0561 16.6184 16.1271 17.1883L16.4042 17.6401ZM16.8726 14.4729C16.8726 15.8125 15.7573 16.9075 14.3701 16.9075V17.4375C16.0372 17.4375 17.4026 16.1178 17.4026 14.4729H16.8726ZM14.3701 12.0383C15.7573 12.0383 16.8726 13.1334 16.8726 14.4729H17.4026C17.4026 12.828 16.0372 11.5083 14.3701 11.5083V12.0383ZM11.8677 14.4729C11.8677 13.1334 12.983 12.0383 14.3701 12.0383V11.5083C12.7031 11.5083 11.3377 12.828 11.3377 14.4729H11.8677ZM14.3701 16.9075C12.983 16.9075 11.8677 15.8125 11.8677 14.4729H11.3377C11.3377 16.1178 12.7031 17.4375 14.3701 17.4375V16.9075ZM10.0589 22.409C10.0589 20.0954 11.984 18.2108 14.3701 18.2108V17.6808C11.7041 17.6808 9.52891 19.7901 9.52891 22.409H10.0589ZM10.0589 23.2908V22.409H9.52891V23.2908H10.0589ZM10.7526 23.9618C10.3643 23.9618 10.0589 23.6563 10.0589 23.2908H9.52891C9.52891 23.9618 10.0845 24.4918 10.7526 24.4918V23.9618ZM17.9877 23.9618H10.7526V24.4918H17.9877V23.9618ZM18.6814 23.2908C18.6814 23.6563 18.376 23.9618 17.9877 23.9618V24.4918C18.6557 24.4918 19.2114 23.9618 19.2114 23.2908H18.6814ZM18.6814 22.409V23.2908H19.2114V22.409H18.6814ZM14.3701 18.2108C16.7563 18.2108 18.6814 20.0954 18.6814 22.409H19.2114C19.2114 19.7901 17.0362 17.6808 14.3701 17.6808V18.2108Z" fill="white"/>
    <circle cx="27.998" cy="8" r="7" fill="#CAD0CD"/>
    <path fill-rule="evenodd" clip-rule="evenodd" d="M25.7591 7.94717C25.5416 7.69163 25.1524 7.65583 24.8901 7.86714C24.6272 8.07798 24.5903 8.45567 24.8076 8.71051L26.2891 10.4494C26.4024 10.5826 26.5695 10.6617 26.7472 10.6666C26.7532 10.6668 26.759 10.6668 26.7648 10.6668C26.9362 10.6668 27.1004 10.5976 27.2174 10.4752L31.168 6.33999C31.3999 6.09732 31.385 5.71823 31.1352 5.49335C30.8849 5.26823 30.4943 5.28274 30.2628 5.52517L26.7913 9.15887L25.7591 7.94717Z" fill="white"/>
</svg>
