<svg width="32" height="32" viewBox="0 0 32 32" fill="currentColor" xmlns="http://www.w3.org/2000/svg">
    <path d="M22.3481 13.9943C23.0052 13.9961 23.656 13.8676 24.263 13.6161C24.87 13.3646 25.4211 12.9952 25.8844 12.5293L30.6969 7.71994C31.0775 7.33931 31.1125 6.71994 30.75 6.32056C30.659 6.22022 30.5486 6.13942 30.4254 6.08305C30.3022 6.02669 30.1689 5.99594 30.0335 5.99266C29.898 5.98939 29.7634 6.01367 29.6376 6.06401C29.5119 6.11436 29.3976 6.18974 29.3019 6.28556L25.0125 10.5718C24.8685 10.7157 24.6733 10.7965 24.4697 10.7965C24.2662 10.7965 24.0709 10.7157 23.9269 10.5718C23.6275 10.2731 23.6438 9.76806 23.9425 9.46931L28.2131 5.19869C28.3089 5.10295 28.3842 4.98878 28.4345 4.86308C28.4847 4.73738 28.509 4.60278 28.5057 4.46744C28.5024 4.33209 28.4717 4.19882 28.4154 4.07571C28.3591 3.95259 28.2784 3.84218 28.1781 3.75119C27.9972 3.58704 27.7612 3.49672 27.5169 3.49806C27.24 3.49825 26.9745 3.60841 26.7788 3.80431L22.5119 8.07056C22.3679 8.21441 22.1726 8.29521 21.9691 8.29521C21.7655 8.29521 21.5703 8.21441 21.4263 8.07056C21.1275 7.77181 21.1431 7.26681 21.4419 6.96806L25.7125 2.69869C25.8082 2.60295 25.8835 2.48878 25.9338 2.36308C25.9841 2.23738 26.0084 2.10278 26.0051 1.96744C26.0018 1.8321 25.9711 1.69882 25.9148 1.57571C25.8585 1.45259 25.7778 1.34218 25.6775 1.25119C25.4965 1.08704 25.2606 0.996717 25.0163 0.998062C24.7394 0.998389 24.4739 1.10853 24.2781 1.30431L19.4688 6.11369C19.0028 6.57704 18.6334 7.12823 18.3819 7.73535C18.1304 8.34246 18.0019 8.99343 18.0038 9.65056V10.1649C18.0039 10.2964 17.978 10.4267 17.9277 10.5482C17.8774 10.6697 17.8037 10.7801 17.7106 10.8731L15.485 13.0993C15.4618 13.1226 15.4342 13.141 15.4039 13.1536C15.3735 13.1662 15.341 13.1726 15.3081 13.1726C15.2753 13.1726 15.2428 13.1662 15.2124 13.1536C15.1821 13.141 15.1545 13.1226 15.1313 13.0993L4.30127 2.26869C4.11435 2.08156 3.86091 1.9761 3.59642 1.9754C3.33193 1.97469 3.07793 2.0788 2.89002 2.26494C1.94315 3.20306 1.43752 4.52744 1.43752 6.09431C1.43127 8.68181 2.79127 11.6568 4.9869 13.8493L10.3275 19.1899C11.0866 19.9475 12.1151 20.3729 13.1875 20.3731C13.5294 20.3732 13.8699 20.3295 14.2006 20.2431C14.2837 20.2213 14.3692 20.2102 14.455 20.2099C14.7061 20.21 14.9478 20.3048 15.1319 20.4756L15.8438 21.1331C16.0274 21.3206 16.1305 21.5725 16.1313 21.8349V22.1812C16.1294 22.9683 16.4388 23.7243 16.9919 24.2843L22.62 30.0074L22.6256 30.0137C23.2503 30.6383 24.0975 30.9891 24.9809 30.9891C25.8642 30.989 26.7114 30.638 27.336 30.0134C27.9605 29.3887 28.3114 28.5415 28.3113 27.6582C28.3113 26.7748 27.9603 25.9276 27.3356 25.3031L18.8994 16.8668C18.8762 16.8436 18.8577 16.816 18.8451 16.7857C18.8325 16.7553 18.8261 16.7228 18.8261 16.6899C18.8261 16.6571 18.8325 16.6246 18.8451 16.5942C18.8577 16.5639 18.8762 16.5363 18.8994 16.5131L21.125 14.2874C21.2179 14.1945 21.3282 14.1208 21.4496 14.0705C21.571 14.0202 21.7011 13.9943 21.8325 13.9943H22.3481Z" />
    <path d="M13.1909 22.3697C11.5899 22.3664 10.0547 21.732 8.91844 20.6041L8.05219 19.7378C7.95845 19.6443 7.83146 19.5918 7.69906 19.5918C7.56666 19.5918 7.43967 19.6443 7.34594 19.7378L2.03344 25.0228C1.08656 25.9697 0.748437 27.3634 1.21719 28.7284C1.24342 28.8053 1.27453 28.8805 1.31031 28.9534C1.94094 30.2447 3.16469 30.9947 4.50344 30.9947C4.96383 30.9958 5.41988 30.9056 5.84515 30.7292C6.27043 30.5528 6.65648 30.2938 6.98094 29.9672L14.0659 22.8484C14.0958 22.818 14.1186 22.7814 14.1328 22.7413C14.1471 22.7011 14.1524 22.6584 14.1484 22.6159V22.5997C14.1457 22.5607 14.135 22.5227 14.1172 22.488C14.0993 22.4532 14.0746 22.4224 14.0445 22.3975C14.0144 22.3726 13.9796 22.354 13.9421 22.3429C13.9047 22.3317 13.8654 22.3283 13.8266 22.3328C13.6155 22.3562 13.4033 22.3685 13.1909 22.3697Z" />
</svg>
